<?xml version="1.0" standalone="no"?>
<!DOCTYPE svg PUBLIC "-//W3C//DTD SVG 20010904//EN"
 "http://www.w3.org/TR/2001/REC-SVG-20010904/DTD/svg10.dtd">
<svg version="1.0" xmlns="http://www.w3.org/2000/svg"
 width="1000.000000pt" height="1000.000000pt" viewBox="0 0 1000.000000 1000.000000"
 preserveAspectRatio="xMidYMid meet">

<g transform="translate(0.000000,1000.000000) scale(0.100000,-0.100000)"
fill="#000000" stroke="none">
<path d="M4810 9928 c-1715 -59 -3286 -1074 -4091 -2643 -285 -555 -448 -1098
-526 -1750 -26 -216 -26 -854 0 -1070 78 -652 241 -1195 526 -1750 805 -1570
2374 -2584 4091 -2643 693 -24 1325 82 1940 325 1587 627 2736 2061 3024 3773
53 313 61 419 61 830 0 411 -8 517 -61 830 -266 1586 -1276 2943 -2699 3631
-710 342 -1450 495 -2265 467z m545 -378 c313 -27 646 -91 935 -181 584 -180
1115 -473 1590 -879 145 -123 429 -412 541 -550 580 -711 912 -1498 1026
-2430 26 -208 26 -812 0 -1020 -117 -952 -477 -1788 -1071 -2485 -111 -129
-362 -380 -496 -495 -473 -405 -1005 -699 -1590 -879 -289 -90 -622 -154 -935
-181 -154 -13 -546 -13 -700 0 -940 81 -1805 444 -2525 1060 -134 115 -385
366 -496 495 -528 619 -891 1395 -1028 2195 -53 307 -61 410 -61 800 0 289 4
395 18 510 114 931 447 1720 1026 2430 112 138 396 427 541 550 475 406 1006
699 1590 879 280 87 622 154 915 179 143 13 579 14 720 2z"/>
<path d="M2332 7579 c-300 -35 -563 -218 -697 -484 -67 -134 -87 -222 -87
-385 0 -112 4 -151 25 -230 48 -183 126 -319 255 -442 74 -71 199 -152 755
-495 l49 -30 -106 -64 c-171 -103 -312 -213 -456 -358 -162 -163 -246 -279
-340 -466 -105 -211 -168 -416 -206 -670 -21 -140 -30 -609 -15 -756 41 -393
212 -632 529 -738 187 -63 482 -65 682 -5 309 92 498 344 539 718 6 52 11 207
11 343 0 136 5 289 11 338 35 290 151 519 336 666 76 61 283 170 325 172 15 1
528 -342 1509 -1010 1706 -1161 1677 -1142 1775 -1188 126 -60 179 -70 359
-69 143 1 169 3 248 27 167 51 281 121 404 249 97 102 162 209 205 338 32 93
32 99 32 275 0 171 -1 184 -28 265 -65 197 -183 363 -328 461 -32 22 -232 141
-445 266 -214 124 -389 227 -391 228 -2 2 45 28 103 59 296 157 540 378 703
637 103 163 208 436 251 650 39 193 52 322 58 584 8 380 -13 529 -105 715 -38
78 -61 110 -132 181 -71 72 -100 94 -180 133 -159 77 -221 90 -460 90 -184 1
-214 -1 -289 -22 -232 -63 -394 -189 -491 -381 -82 -165 -100 -269 -110 -666
-9 -330 -15 -383 -62 -525 -98 -302 -331 -522 -629 -595 l-68 -17 -1423 999
c-783 550 -1450 1018 -1483 1040 -140 94 -275 146 -420 163 -100 11 -110 11
-213 -1z"/>
</g>
</svg>
